<svg width="250" height="59" viewBox="0 0 250 59" fill="none" xmlns="http://www.w3.org/2000/svg">
    <path d="M239 0.5H36C34.5 0.499996 26.5 3 23 6C19.5 9 16.6818 12 14.5 16C12.3181 20 2.99996 38 2 40.5C1.00004 43 0.5 45.5 0.5 48V48.0001C0.5 50.5001 0.5 53.5 3 56C5.50004 58.5 7.5 59 8.99996 59H215.5C219.5 59 223.5 56.5 225 55.5C226.5 54.5 229.5 53 232.5 48C235.493 43.0116 248.44 17.1208 248.996 16.0074L249 16C249.5 15 251 9.5 247.5 5C244 0.5 241.5 0.5 239 0.5Z"/>
    <style>
        path {
        fill: #D9D9D9;
        animation: colorChange 1.4s infinite;
        }
        @keyframes colorChange {
        0%, 100% {
        fill: rgb(249, 220, 74);
        }
        50% {
        fill: rgb(156, 188, 58);
        }
        }
    </style>
</svg>
